# xmcd
#
# Track frame offsets: 
#        150
#        38620
#        82537
#        114487
#        188827
#        228527
#        253095
#
# Disc length: 3925 seconds
#
# Revision: 2
# Processed by: cddbd v1.5.2PL0 Copyright (c) Steve Scherf et al.
# Submitted via: ExactAudioCopy v1.3
#
DISCID=4a0f5307
DTITLE=Royal Concertgebouw Orchestra - RCO 125 anniversary edition - Th
DTITLE=e Radio Legacy, CD 041 [Eduard van Beinum, chief conductor 1945
DTITLE=1959]
DYEAR=2013
DGENRE=Classical
TTITLE0=Henk Badings: Concierto para violonchelo y orquesta No. 2 (194
TTITLE0=0) - I. Allegro molto
TTITLE1=Henk Badings: Concierto para violonchelo y orquesta No. 2 (194
TTITLE1=0) - II. Largo
TTITLE2=Henk Badings: Concierto para violonchelo y orquesta No. 2 (194
TTITLE2=0) - III. Allegro
TTITLE3=Piotr Ilych Tchaikovsky: Sinfonía No. 4 en Fa menor (1877-1878
TTITLE3=), op. 36 - I. Andante sostenuto - Moderato con anima - Modera
TTITLE3=to assai, quasi andante - Allegro vivo
TTITLE4=Piotr Ilych Tchaikovsky: Sinfonía No. 4 en Fa menor (1877-1878
TTITLE4=), op. 36 - II. Andantino in modo di canzona
TTITLE5=Piotr Ilych Tchaikovsky: Sinfonía No. 4 en Fa menor (1877-1878
TTITLE5=), op. 36 - III. Scherzo. Pizzicato ostinato, allegro
TTITLE6=Piotr Ilych Tchaikovsky: Sinfonía No. 4 en Fa menor (1877-1878
TTITLE6=), op. 36 - IV. Finale. Allegro con fuoco
EXTD=
EXTT0=
EXTT1=
EXTT2=
EXTT3=
EXTT4=
EXTT5=
EXTT6=
PLAYORDER=
